STARTFONT 2.1
COMMENT
COMMENT Converted from OpenType font "c:\Users\Martin\Dropbox\Code\EEZ\psu-firmware\tools\font_tools\fonts\ttf\heydings_icons.ttf" by "otf2bdf.exe 3.0".
COMMENT
FONT -FreeType-Heydings Icons-Medium-R-Normal--19-140-100-100-P-148-ISO10646-1
SIZE 14 100 100
FONTBOUNDINGBOX 18 17 0 -1
STARTPROPERTIES 19
FOUNDRY "FreeType"
FAMILY_NAME "Heydings Icons"
WEIGHT_NAME "Medium"
SLANT "R"
SETWIDTH_NAME "Normal"
ADD_STYLE_NAME ""
PIXEL_SIZE 19
POINT_SIZE 140
RESOLUTION_X 100
RESOLUTION_Y 100
SPACING "P"
AVERAGE_WIDTH 148
CHARSET_REGISTRY "ISO10646"
CHARSET_ENCODING "1"
FONT_ASCENT 19
FONT_DESCENT 0
COPYRIGHT "Copyright (c) 2011, Heydon Pickering (http://www.heydonworks.com | heydon@heydonworks.com),  with Reserved Font Name 'Heydings Icons'. This Font Software is licensed under the SIL Open Font License, Version 1.1.  This license is available with a FAQ at: http://scripts.sil.org/OFL"
_OTF_FONTFILE "c:\Users\Martin\Dropbox\Code\EEZ\psu-firmware\tools\font_tools\fonts\ttf\heydings_icons.ttf"
_OTF_PSNAME "Heydings Icons"
ENDPROPERTIES
CHARS 60
STARTCHAR 0021
ENCODING 33
SWIDTH 977 0
DWIDTH 19 0
BBX 16 16 1 0
BITMAP
0080
01C0
03C0
0360
0660
06B0
0CB0
0C98
1898
188C
308C
3006
6186
6083
FFFF
FFFF
ENDCHAR
STARTCHAR 002A
ENCODING 42
SWIDTH 977 0
DWIDTH 19 0
BBX 15 16 2 -1
BITMAP
0200
17C0
1FF0
7FF0
7FFC
7FFC
FFFE
7FFE
FFFC
FFFE
7FFC
7FF8
3FFC
3FF0
27A0
0480
ENDCHAR
STARTCHAR 002B
ENCODING 43
SWIDTH 977 0
DWIDTH 19 0
BBX 16 16 1 0
BITMAP
07F0
1FF8
3FFC
7FFE
7E3F
FE3F
FE3F
F007
F007
FE3F
7E3F
7E3F
3FFE
3FFC
1FF8
07E0
ENDCHAR
STARTCHAR 002D
ENCODING 45
SWIDTH 977 0
DWIDTH 19 0
BBX 16 16 1 0
BITMAP
07F0
1FF8
3FFC
7FFE
7FFF
FFFF
FFFF
F007
F007
FFFF
FFFF
7FFF
7FFE
3FFC
1FF8
07E0
ENDCHAR
STARTCHAR 0031
ENCODING 49
SWIDTH 977 0
DWIDTH 19 0
BBX 16 16 1 0
BITMAP
0770
1F78
0F7C
677E
737F
FB7F
FD7F
FE7F
FE7F
F9FF
67FF
0FFF
3FFE
3FFC
1FF8
07E0
ENDCHAR
STARTCHAR 0032
ENCODING 50
SWIDTH 977 0
DWIDTH 19 0
BBX 13 16 3 0
BITMAP
7F80
7FE0
FFF8
FFF8
FFF8
FFF8
FFF8
FFE8
FFC0
F3C0
03C0
0380
0300
0700
0600
0200
ENDCHAR
STARTCHAR 0033
ENCODING 51
SWIDTH 977 0
DWIDTH 19 0
BBX 16 14 1 0
BITMAP
07E0
0420
0420
07E0
07E0
07F0
0080
0080
7EBF
42A1
43E1
7E3F
7E3F
FF7F
ENDCHAR
STARTCHAR 0034
ENCODING 52
SWIDTH 977 0
DWIDTH 19 0
BBX 16 16 1 0
BITMAP
07F0
1E78
380C
7006
6003
C083
C081
C081
C2E1
CEF9
7CBF
7DFF
3DFE
3E3C
1FF8
07E0
ENDCHAR
STARTCHAR 0035
ENCODING 53
SWIDTH 977 0
DWIDTH 19 0
BBX 12 16 3 -1
BITMAP
FFF0
FFD0
FFF0
BFF0
B8F0
B8F0
BFF0
BFF0
FFF0
8010
BFF0
B8F0
B8F0
BFF0
8010
FFF0
ENDCHAR
STARTCHAR 0038
ENCODING 56
SWIDTH 977 0
DWIDTH 19 0
BBX 13 16 3 0
BITMAP
0600
0600
0600
0600
0E00
1C00
1E70
3FF8
7FF0
FFF8
FFF8
FFF8
FFF8
FFF0
7FF0
1FE0
ENDCHAR
STARTCHAR 0040
ENCODING 64
SWIDTH 977 0
DWIDTH 19 0
BBX 17 17 1 -1
BITMAP
018000
018000
07F000
1FF800
198C00
318E00
300600
600600
FC3F80
7C0780
600600
318600
398C00
1FB800
0FF000
01C000
018000
ENDCHAR
STARTCHAR 0041
ENCODING 65
SWIDTH 977 0
DWIDTH 19 0
BBX 13 16 3 0
BITMAP
0F00
0F80
1FC0
1FC0
1F80
0F80
0000
3DE0
7FF0
FFF8
FFF8
FFF8
FFF8
FFF8
FFF8
FFF8
ENDCHAR
STARTCHAR 0042
ENCODING 66
SWIDTH 977 0
DWIDTH 19 0
BBX 10 16 5 0
BITMAP
7F00
FF80
FFC0
FF00
FF00
FF00
FF00
FF00
FF00
FF00
FF00
FF00
E700
C300
C100
8100
ENDCHAR
STARTCHAR 0043
ENCODING 67
SWIDTH 977 0
DWIDTH 19 0
BBX 16 16 1 0
BITMAP
06C0
07F8
3FF8
3FFE
3C1E
780E
700F
7007
F007
F007
380F
781E
3F7C
1FFC
1FF0
03B0
ENDCHAR
STARTCHAR 0044
ENCODING 68
SWIDTH 977 0
DWIDTH 19 0
BBX 13 16 3 -1
BITMAP
FFC0
80C0
80A0
8090
80F8
8008
8008
BFC8
BF88
BF88
BFC8
8008
BE08
8008
8008
FFF8
ENDCHAR
STARTCHAR 0045
ENCODING 69
SWIDTH 977 0
DWIDTH 19 0
BBX 16 15 1 0
BITMAP
03E0
0E70
1818
300C
6006
C001
C003
B005
8BE9
8411
8809
9005
A007
C003
FFFF
ENDCHAR
STARTCHAR 0046
ENCODING 70
SWIDTH 977 0
DWIDTH 19 0
BBX 16 15 1 -1
BITMAP
0C00
3FFE
7FFE
0000
FFFF
FFFF
FFFF
FFFF
FFFF
FFFF
FFFF
FFFF
FFFF
FFFF
FFFF
ENDCHAR
STARTCHAR 0047
ENCODING 71
SWIDTH 977 0
DWIDTH 19 0
BBX 16 16 1 0
BITMAP
001C
0038
0030
0031
003F
007F
00FC
01E0
03C0
1F80
7F00
7E00
CE00
8600
0E00
1C00
ENDCHAR
STARTCHAR 0048
ENCODING 72
SWIDTH 977 0
DWIDTH 19 0
BBX 14 16 2 -1
BITMAP
0130
03B0
06F0
0D70
1BB0
37D0
6FE8
DFF4
3FF0
3FF0
3FF0
3CF0
3C70
3C70
3C70
3C70
ENDCHAR
STARTCHAR 0049
ENCODING 73
SWIDTH 977 0
DWIDTH 19 0
BBX 16 12 1 0
BITMAP
1E00
1E00
7F0E
FFFF
EDE1
D2FF
A17F
A17F
A1FF
D6FF
E1FF
FFFF
ENDCHAR
STARTCHAR 004A
ENCODING 74
SWIDTH 977 0
DWIDTH 19 0
BBX 15 16 2 0
BITMAP
3690
FFFE
B696
9096
8006
BFF6
BF86
BF86
BFC6
8006
BFE6
8006
BF06
8006
8006
FFFE
ENDCHAR
STARTCHAR 004B
ENCODING 75
SWIDTH 977 0
DWIDTH 19 0
BBX 8 16 5 0
BITMAP
08
1C
1C
0C
1C
1C
3C
3C
3E
7F
FF
FF
F7
E7
67
3C
ENDCHAR
STARTCHAR 004C
ENCODING 76
SWIDTH 977 0
DWIDTH 19 0
BBX 14 16 2 0
BITMAP
07C0
1FE0
3830
3018
3018
3018
3018
FFFC
FFFC
FCFC
FC7C
FC7C
FCFC
FCFC
FFFC
FFFC
ENDCHAR
STARTCHAR 004D
ENCODING 77
SWIDTH 977 0
DWIDTH 19 0
BBX 16 16 1 -1
BITMAP
0078
01FE
0183
0303
0201
0201
0301
0303
0186
07FC
0E00
1E00
3C00
7800
F000
E000
ENDCHAR
STARTCHAR 004E
ENCODING 78
SWIDTH 977 0
DWIDTH 19 0
BBX 16 16 1 0
BITMAP
07F0
1E78
388C
71C6
6083
C083
C1C1
CE71
C241
C1C1
4083
6083
31C6
388C
1FF8
07E0
ENDCHAR
STARTCHAR 004F
ENCODING 79
SWIDTH 977 0
DWIDTH 19 0
BBX 16 16 1 0
BITMAP
FFFF
FFFF
FFFF
FFF3
FFE3
FFC7
FF8F
E71F
E23F
E03F
F07F
FC7F
FCFF
FEFF
FFFF
7FFF
ENDCHAR
STARTCHAR 0050
ENCODING 80
SWIDTH 977 0
DWIDTH 19 0
BBX 9 15 5 0
BITMAP
3E00
7F00
FF80
E780
E380
F780
FF00
7F00
3E00
3E00
3C00
1C00
1C00
1800
0800
ENDCHAR
STARTCHAR 0051
ENCODING 81
SWIDTH 977 0
DWIDTH 19 0
BBX 16 16 1 0
BITMAP
FFFF
FE3F
F81F
F9CF
F3CF
F3CF
FF8F
FF1F
FF3F
FE7F
FE7F
FFFF
FE7F
FE3F
FF7F
7FFF
ENDCHAR
STARTCHAR 0052
ENCODING 82
SWIDTH 977 0
DWIDTH 19 0
BBX 16 16 1 0
BITMAP
7FFF
FFFF
E7FF
E0FF
E03F
FE1F
FF0F
E18F
E0C7
F867
FC63
E623
E233
E633
FFFF
FFFF
ENDCHAR
STARTCHAR 0053
ENCODING 83
SWIDTH 977 0
DWIDTH 19 0
BBX 16 12 1 -1
BITMAP
03C0
0FF0
0808
1008
1004
FFFF
44A7
7FFE
24A6
3FFC
34A4
1FFC
ENDCHAR
STARTCHAR 0054
ENCODING 84
SWIDTH 977 0
DWIDTH 19 0
BBX 13 16 3 -1
BITMAP
0700
0700
0600
1FC0
30E0
6230
C210
8298
8388
8208
8018
8018
C010
6030
38E0
0F80
ENDCHAR
STARTCHAR 0055
ENCODING 85
SWIDTH 977 0
DWIDTH 19 0
BBX 13 15 3 0
BITMAP
FFF8
8018
8018
FFF8
FFF8
C2B8
C2B8
FFF8
C2B8
FFF8
C2B8
FFB8
C2B8
C2B8
FFF8
ENDCHAR
STARTCHAR 0056
ENCODING 86
SWIDTH 977 0
DWIDTH 19 0
BBX 15 16 2 -1
BITMAP
000C
0194
76B4
D4B0
B600
C000
DA5A
D2D6
B4B6
FFFE
FEFE
FEFE
FEFE
FEFE
FEFE
FFFE
ENDCHAR
STARTCHAR 0057
ENCODING 87
SWIDTH 977 0
DWIDTH 19 0
BBX 15 15 2 0
BITMAP
0780
04C0
0440
07C0
0380
3FF0
3FF0
3FF8
3FF8
7FF8
7FFC
7FFC
FFFC
FFFE
FFFE
ENDCHAR
STARTCHAR 0058
ENCODING 88
SWIDTH 977 0
DWIDTH 19 0
BBX 16 16 1 0
BITMAP
7FFF
FFFF
F7F7
E3E3
E1C3
F087
F80F
FC1F
FC1F
F80F
F087
E1C3
E3E3
F7F7
FFFF
7FFF
ENDCHAR
STARTCHAR 0059
ENCODING 89
SWIDTH 977 0
DWIDTH 19 0
BBX 16 13 1 0
BITMAP
0004
003C
07FC
1FFC
1FFC
4001
DFFD
C001
DFFD
C001
DFFD
C001
FFFF
ENDCHAR
STARTCHAR 005A
ENCODING 90
SWIDTH 977 0
DWIDTH 19 0
BBX 16 15 1 -1
BITMAP
0C00
3FFE
7FFE
0000
FFFF
FFE7
FFFF
FFF1
FFFF
FFE7
FFFF
FFF1
FFFF
FFE7
FFFF
ENDCHAR
STARTCHAR 0061
ENCODING 97
SWIDTH 977 0
DWIDTH 19 0
BBX 16 16 1 -1
BITMAP
000C
001F
0031
0061
00C3
00B6
00FC
00F8
0FF0
1B80
3780
6580
C300
C600
4C00
7800
ENDCHAR
STARTCHAR 0062
ENCODING 98
SWIDTH 977 0
DWIDTH 19 0
BBX 17 16 1 0
BITMAP
7FFF00
C00100
800180
800180
800180
800180
800180
800180
800180
800180
7E3F00
026000
034000
01C000
018000
008000
ENDCHAR
STARTCHAR 0063
ENCODING 99
SWIDTH 977 0
DWIDTH 19 0
BBX 15 15 2 0
BITMAP
3690
FFFE
F696
9696
8006
9FF6
9FF6
9FF6
9FF6
9FF6
9FF6
9FF6
8006
8006
FFFE
ENDCHAR
STARTCHAR 0064
ENCODING 100
SWIDTH 977 0
DWIDTH 19 0
BBX 7 16 6 0
BITMAP
38
38
38
38
38
38
38
38
38
38
FE
FC
7C
38
30
10
ENDCHAR
STARTCHAR 0065
ENCODING 101
SWIDTH 977 0
DWIDTH 19 0
BBX 16 15 1 0
BITMAP
003F
001F
FFBF
FF7F
C0FF
C1F9
C3F0
C1E4
C0CC
C00C
C00C
C00C
C00C
FFFC
FFFC
ENDCHAR
STARTCHAR 0066
ENCODING 102
SWIDTH 977 0
DWIDTH 19 0
BBX 12 16 3 0
BITMAP
C000
0000
5F00
5FF0
5FF0
5FF0
5FF0
5FF0
5FF0
40F0
4000
4000
4000
4000
4000
4000
ENDCHAR
STARTCHAR 0067
ENCODING 103
SWIDTH 977 0
DWIDTH 19 0
BBX 16 13 1 0
BITMAP
07F0
07F0
07F0
0080
0080
07F0
07F0
07F0
0220
0430
FE7F
FE7F
FE7F
ENDCHAR
STARTCHAR 0068
ENCODING 104
SWIDTH 977 0
DWIDTH 19 0
BBX 16 13 1 1
BITMAP
3C3E
7E7F
FFFF
FFFF
FFFF
7FFF
7FFE
3FFE
1FFC
0FF8
07E0
01C0
0080
ENDCHAR
STARTCHAR 0069
ENCODING 105
SWIDTH 977 0
DWIDTH 19 0
BBX 16 16 1 0
BITMAP
FFFF
FFFF
FE3F
FE3F
FE3F
FFFF
FC7F
FE7F
FE7F
FE7F
FE7F
FE7F
FE7F
FC1F
FFFF
7FFF
ENDCHAR
STARTCHAR 006B
ENCODING 107
SWIDTH 977 0
DWIDTH 19 0
BBX 16 14 1 0
BITMAP
FF7F
FF7F
FF7F
FF7F
0000
EFF7
EFF7
EFF7
EFF7
0000
FF7F
FF7F
FF7F
FF7F
ENDCHAR
STARTCHAR 006C
ENCODING 108
SWIDTH 977 0
DWIDTH 19 0
BBX 10 16 4 0
BITMAP
1F00
6180
40C0
C040
8040
8440
DE40
4AC0
6080
2180
3100
1F00
0000
1E00
0000
0C00
ENDCHAR
STARTCHAR 006D
ENCODING 109
SWIDTH 977 0
DWIDTH 19 0
BBX 16 14 1 0
BITMAP
0040
01C4
03C6
07DB
FFC9
FFCD
FFC5
FFCD
FFCD
FFDB
03C6
01CE
00C0
0040
ENDCHAR
STARTCHAR 006E
ENCODING 110
SWIDTH 977 0
DWIDTH 19 0
BBX 10 16 4 -1
BITMAP
7FC0
FFC0
C040
C040
C040
C040
C040
C040
C040
C040
C040
C040
FFC0
F3C0
F3C0
FFC0
ENDCHAR
STARTCHAR 006F
ENCODING 111
SWIDTH 977 0
DWIDTH 19 0
BBX 13 16 3 0
BITMAP
0700
0500
0F80
F0F8
9F98
8018
8018
C018
C018
C018
C018
C018
E018
E018
FFF8
FFF8
ENDCHAR
STARTCHAR 0070
ENCODING 112
SWIDTH 977 0
DWIDTH 19 0
BBX 16 16 1 -1
BITMAP
0FF8
0808
0808
0808
0808
0808
0808
F80F
F80D
FFFD
FFFF
FFFF
FFFF
F80F
280A
2FF8
ENDCHAR
STARTCHAR 0071
ENCODING 113
SWIDTH 977 0
DWIDTH 19 0
BBX 14 16 2 0
BITMAP
0A00
3E00
7D00
7D00
FE00
FC00
F000
F000
7000
7010
7850
3CE8
1FF4
1FF0
0FF8
03E0
ENDCHAR
STARTCHAR 0072
ENCODING 114
SWIDTH 977 0
DWIDTH 19 0
BBX 10 13 4 2
BITMAP
00C0
0180
0700
0F00
1E00
7FC0
FF80
1F00
1C00
3800
7000
6000
8000
ENDCHAR
STARTCHAR 0073
ENCODING 115
SWIDTH 977 0
DWIDTH 19 0
BBX 14 15 2 0
BITMAP
0100
0100
0300
0380
0380
0780
FFFC
3FF8
1FF0
0FE0
0FE0
1FE0
1C60
1830
0010
ENDCHAR
STARTCHAR 0074
ENCODING 116
SWIDTH 977 0
DWIDTH 19 0
BBX 15 13 2 0
BITMAP
01FC
07FC
0FE6
3FE6
FFFE
FFFC
FFFC
7FFC
7FF0
3FC0
3F00
1E00
0800
ENDCHAR
STARTCHAR 0075
ENCODING 117
SWIDTH 977 0
DWIDTH 19 0
BBX 7 16 6 0
BITMAP
10
30
38
7C
FC
FE
38
38
38
38
38
38
38
38
38
38
ENDCHAR
STARTCHAR 0076
ENCODING 118
SWIDTH 977 0
DWIDTH 19 0
BBX 16 15 1 0
BITMAP
C000
C000
C0E0
C0E0
C0E0
C0E0
C0E0
DCE0
DCE0
DCE0
DCEF
DCEF
DCEF
DCEF
FFFF
ENDCHAR
STARTCHAR 0077
ENCODING 119
SWIDTH 977 0
DWIDTH 19 0
BBX 15 15 2 0
BITMAP
000E
001E
007E
00FC
01F8
03F0
03F0
07E0
07C0
0B00
3C00
E800
D800
B000
7000
ENDCHAR
STARTCHAR 0079
ENCODING 121
SWIDTH 977 0
DWIDTH 19 0
BBX 16 16 1 0
BITMAP
07F0
1C18
3004
6002
4003
4C11
DC39
8001
8001
C001
4FF1
47F3
23C6
300C
1C38
07E0
ENDCHAR
ENDFONT
